<?xml version="1.0" standalone="no"?>
<!DOCTYPE svg PUBLIC "-//W3C//DTD SVG 1.1//EN" "http://www.w3.org/Graphics/SVG/1.1/DTD/svg11.dtd" >
<svg xmlns="http://www.w3.org/2000/svg" xmlns:xlink="http://www.w3.org/1999/xlink" version="1.1">
<metadata></metadata>
<defs>
<font id="amirislanted" horiz-adv-x="1090" >
<font-face units-per-em="2048" ascent="1638" descent="-410" />
<missing-glyph horiz-adv-x="600" />
<glyph horiz-adv-x="0" />
<glyph unicode="&#xd;" horiz-adv-x="682" />
<glyph unicode=" "  horiz-adv-x="600" />
<glyph unicode="&#x09;" horiz-adv-x="600" />
<glyph unicode="&#xa0;" horiz-adv-x="600" />
<glyph unicode="!" horiz-adv-x="482" d="M130 90q0 45 33.5 76.5t78.5 31.5t76.5 -31.5t31.5 -76.5t-31.5 -78.5t-76.5 -33.5t-78.5 33.5t-33.5 78.5zM150 1168q0 45 27.5 80.5t72.5 35.5q43 0 65.5 -35.5t22.5 -80.5q0 -25 -7.5 -113.5t-26.5 -301t-36 -409.5q-12 -24 -32 -26q-19 8 -26 22q-60 690 -60 828z " />
<glyph unicode="&#x22;" horiz-adv-x="560" d="M78 1258q0 47 30 93.5t74 46.5q31 0 52 -26q0 -44 -9.5 -177.5t-18.5 -210.5q-12 -24 -40 -38q-12 0 -18 12q-70 240 -70 300zM318 1258q0 47 30 93.5t74 46.5q31 0 52 -26q0 -44 -9.5 -177.5t-18.5 -210.5q-12 -24 -40 -38q-12 0 -18 12q-70 240 -70 300z" />
<glyph unicode="#" horiz-adv-x="960" d="M101.5 379.5q-0.5 20.5 9.5 45.5t22 29h652q13 0 14.5 -22t-7.5 -46t-21 -30h-658q-11 3 -11.5 23.5zM157.5 761q-0.5 23 8.5 47t21 28h652q13 0 15 -22t-6.5 -46t-20.5 -30h-658q-11 0 -11.5 23zM211 136l144 900q3 10 4 12t5.5 7t12.5 6t22 1q17 0 26 -6l-146 -902 q-2 -8 -14 -17t-32 -9q-9 0 -14.5 2t-6.5 4zM533 136l144 900q3 10 4 12t5.5 7t12.5 6t22 1q17 0 26 -6l-144 -902q-2 -8 -15 -17t-33 -9q-9 0 -14.5 2t-6.5 4z" />
<glyph unicode="$" horiz-adv-x="996" d="M102 330q6 6 22.5 11t27.5 5q17 0 22 -10q6 -27 15.5 -54.5t30.5 -71t60 -80.5t90 -58l82 496q-46 27 -74 44.5t-70 47.5t-68 57t-52 62t-38 75.5t-12 85.5q0 98 54 177t139.5 120t182.5 41q21 0 55 -2l15 90q70 0 70 -14l-14 -87q23 -5 75 -19t89 -22q8 -35 13.5 -80.5 t7 -72t2.5 -71.5t1 -48q-13 -8 -36 -8q-18 0 -28 10q-7 55 -44.5 118.5t-94.5 101.5l-77 -463q2 -1 7 -4t7 -5q15 -10 50 -31t56 -34t54.5 -36.5t54.5 -42.5t46 -46.5t39 -53.5t24 -58.5t10 -67.5q0 -102 -58 -184t-149 -125t-195 -43q-33 0 -66 3l-14 -87q-21 0 -45.5 4.5 t-24.5 13.5l13 78q-20 3 -209 44q-16 78 -31 176.5t-15 117.5zM292 1000q0 -44 14.5 -80.5t44.5 -67.5t58 -52t73 -49l75 454q-25 7 -55 7q-60 0 -103 -19.5t-65.5 -52.5t-32 -67.5t-9.5 -72.5zM440 52q24 -4 58 -4q95 0 162.5 62t67.5 170q0 23 -4 44t-8.5 37t-17.5 33.5 t-19.5 27.5t-26.5 25.5t-28 21.5t-34 21.5t-33.5 19.5l-37.5 20z" />
<glyph unicode="%" horiz-adv-x="1334" d="M80 968q0 136 84.5 229t215.5 93q128 0 211 -94.5t83 -227.5q0 -81 -34.5 -153t-103.5 -118.5t-156 -46.5q-125 0 -212.5 93t-87.5 225zM128 -2l964 1250q20 24 40 24q21 0 32 -1.5t14.5 -3t8.5 -8.5t9 -11l-966 -1248q-6 -8 -27.5 -16t-38.5 -8q-25 0 -36 22zM208 992 q0 -107 55.5 -199.5t128.5 -92.5q41 0 72 22.5t47 60.5t23.5 80t7.5 89q0 69 -20 134.5t-60 110.5t-90 45q-56 0 -94.5 -39t-54 -93.5t-15.5 -117.5zM656 304q0 136 85 229t217 93q128 0 210 -94t82 -228q0 -127 -81 -222.5t-213 -95.5q-125 0 -212.5 93t-87.5 225zM784 328 q0 -107 56.5 -199.5t129.5 -92.5q41 0 71.5 22.5t46.5 60.5t23 80t7 89q0 69 -19.5 134.5t-59 110.5t-89.5 45q-56 0 -95 -39t-55 -93.5t-16 -117.5z" />
<glyph unicode="&#x26;" horiz-adv-x="1562" d="M-14 214q0 94 56.5 163t161.5 99q6 2 54 15q12 3 22 6q7 86 40 172q42 111 114 200.5t178 146t224 56.5q69 0 118.5 -49.5t49.5 -115t-29.5 -122.5t-73 -98t-109 -79t-120 -61t-124.5 -45q-48 -15 -106 -30q6 -195 98 -303q97 -115 280 -115q92 0 178 43t141 120t55 167 q0 24 -10 53t-20 39q-128 -41 -190 -106q-38 -39 -38 -75t8 -49q-5 -4 -19 -1t-26 14t-24.5 43t-12.5 68q0 65 56.5 115.5t173.5 100.5q403 173 382 498q22 2 40 -16q44 -88 44 -195.5t-69.5 -199t-180.5 -145.5q12 -24 12 -72q0 -118 -79 -226t-210 -174t-254 -66t-207 25 t-151 77q-136 107 -141 340q-83 -22 -130 -44q-62 -30 -62 -80q0 -32 30 -54q48 -36 48 -76t-25 -62t-60 -22t-53 10q-18 15 -29 49t-11 61zM443 547q27 9 45 17q31 12 80.5 33.5t79.5 41t66 47t56 54.5q48 65 48 130q0 118 -102 118q-107 0 -190 -138q-74 -122 -83 -303z " />
<glyph unicode="'" horiz-adv-x="320" d="M78 1258q0 47 30 93.5t74 46.5q31 0 52 -26q0 -44 -9.5 -177.5t-18.5 -210.5q-12 -24 -40 -38q-12 0 -18 12q-70 240 -70 300z" />
<glyph unicode="(" horiz-adv-x="524" d="M74 570q0 281 107.5 502t292.5 366q6 -4 16 -14t16.5 -18t5.5 -8q-136 -121 -214 -351.5t-78 -476.5t78 -478t214 -352q1 0 -5.5 -8t-16.5 -18t-16 -14q-184 145 -292 367.5t-108 502.5z" />
<glyph unicode=")" horiz-adv-x="524" d="M12 -260q136 120 214 352t78 478t-78 476.5t-214 351.5q-1 0 5.5 8t16.5 18t16 14q185 -145 292.5 -366t107.5 -502q0 -280 -108 -502.5t-292 -367.5q-6 4 -16 14t-16.5 18t-5.5 8z" />
<glyph unicode="*" horiz-adv-x="886" d="M71 914q-6 32 16 55.5t60 28.5q50 6 122.5 -4.5t109.5 -5.5q18 6 22 16q5 13 -4 28q-18 31 -65.5 81.5t-72.5 94.5q-19 32 -16.5 65t28.5 47q30 15 57.5 2t44.5 -48q21 -45 33.5 -117.5t28.5 -106.5q10 -20 20 -22q12 -2 26 12q25 27 57 88t65 98q27 30 57.5 37.5 t54.5 -13.5q24 -24 20.5 -55t-32.5 -57q-36 -33 -101.5 -67.5t-92.5 -60.5q-1 -2 -3 -5.5t-5 -11t-2 -11.5q3 -13 20 -20q33 -15 100.5 -27t113.5 -33q36 -16 53.5 -43.5t4.5 -54.5q-15 -30 -46 -36t-64 12q-44 24 -97 75.5t-85 68.5l-5 2.5t-11.5 4t-11.5 -0.5 q-4 -2 -6.5 -5.5t-3 -6l-1.5 -7.5t-1 -7q-4 -36 4.5 -104t3.5 -118q-5 -39 -25.5 -63.5t-50.5 -20.5q-33 4 -48.5 31t-7.5 65q9 49 42 116.5t40 103.5q2 18 -6 26q-7 10 -26 6q-34 -7 -96.5 -37t-113.5 -41q-38 -8 -69 4t-35 42z" />
<glyph unicode="+" horiz-adv-x="1084" d="M62 456q0 13 8.5 47.5t21.5 44.5h392v400q59 22 86 22q9 0 15.5 -3t8.5 -6l2 -3v-410h408q7 0 12.5 -6.5t5.5 -17.5q0 -24 -9.5 -49.5t-22.5 -38.5h-394v-404q-29 -22 -86 -22q-10 0 -18 6t-8 12v408h-410q-12 0 -12 20z" />
<glyph unicode="," horiz-adv-x="400" d="M-56 -178q38 18 87 66.5t49 104.5t-17 96t-17 77t32.5 64.5t75 27.5t58.5 -20q6 -15 6 -48q0 -128 -72 -246q-38 -62 -89 -105.5t-85 -56.5q-6 0 -17 14.5t-11 25.5z" />
<glyph unicode="-" horiz-adv-x="742" d="M106 423.5q0 25.5 13.5 61.5t28.5 37l454 24q12 0 12 -23t-16 -62.5t-30 -40.5l-452 -22q-10 0 -10 25.5z" />
<glyph unicode="." horiz-adv-x="416" d="M16 72.5q0 47.5 42 89.5t86.5 42t68 -25.5t23.5 -72.5t-41 -90.5t-85.5 -43.5t-69 26.5t-24.5 74z" />
<glyph unicode="/" horiz-adv-x="826" d="M60 -56l598 1548q1 4 10.5 10.5t28.5 13t41 6.5q20 0 26 -18l-590 -1528q-6 -15 -27 -30.5t-51 -15.5q-13 0 -22 3.5t-12 6.5z" />
<glyph unicode="0" d="M108 638q0 176 50.5 321t151 234t234.5 89q135 0 236 -89t150.5 -233.5t49.5 -321.5q0 -176 -50.5 -321t-151 -234t-234.5 -89q-132 0 -232.5 89t-152 234t-51.5 321zM284 640q0 -156 31.5 -286.5t90 -208t130.5 -77.5q86 0 148 81t91 210.5t29 290.5q0 156 -31 283 t-88 201t-129 74q-82 0 -144.5 -77t-95 -205t-32.5 -286z" />
<glyph unicode="1" d="M292 1110q0 11 4 12q69 31 157.5 73t138.5 65.5t52 23.5h4q14 0 20 -32q-16 -72 -16 -194v-826q0 -116 10 -148q4 -14 51.5 -23t76.5 -9q6 -8 6.5 -29t-6.5 -29q-205 10 -222 10q-9 0 -214 -10q-7 8 -6.5 29t6.5 29q29 0 76.5 9t51.5 23q12 38 12 148v808q0 42 -10 59 t-32 17q-33 0 -140 -40q-20 16 -20 34z" />
<glyph unicode="2" d="M136 28q317 351 476 584q57 84 76.5 151t19.5 149q0 104 -62 173t-158 69q-56 0 -107.5 -20.5t-87.5 -51.5t-57.5 -55.5t-33.5 -44.5q-11 0 -24.5 12.5t-13.5 19.5q6 23 35 64t74.5 89t115.5 82.5t143 34.5q141 0 243.5 -102t102.5 -232q0 -162 -114 -302 q-154 -188 -436 -502h396q58 0 96.5 37t71.5 117q5 12 24 12q24 0 40 -12q-44 -107 -108 -300h-692q-6 3 -13 12.5t-7 15.5z" />
<glyph unicode="3" d="M168 112q0 42 25 69t59 27q25 0 44 -13t40 -40.5t28 -34.5q50 -50 148 -50q42 0 82 17t75.5 51.5t57 97t21.5 144.5q0 119 -77 200.5t-179 81.5q-19 0 -41.5 -4.5t-49 -12.5t-29.5 -9q-12 15 -12 40q0 14 4 20q64 14 117 37.5t98.5 59t71 86.5t25.5 113q0 80 -55.5 133 t-140.5 53q-43 0 -85.5 -19.5t-66.5 -40.5t-47 -46t-25 -26q-9 0 -16.5 15t-7.5 29q55 81 140 137.5t192 56.5q40 0 84.5 -17.5t84.5 -48.5t66.5 -81.5t26.5 -108.5q0 -46 -18.5 -90.5t-49 -78.5t-59.5 -58.5t-59 -42.5q45 -6 92 -30t90 -63t70.5 -99t27.5 -130 q0 -99 -44 -184.5t-116 -142t-163 -88t-185 -31.5q-112 0 -204 46q-12 8 -26 31.5t-14 44.5z" />
<glyph unicode="4" d="M100 386l652 852q12 16 30.5 33t29.5 17q14 0 22 -11t8 -25v-790h118q9 0 18.5 -26t9.5 -56q0 -20 -8 -32h-138v-350q-8 -10 -86 -10q-72 0 -72 16v344h-564q-20 11 -20 38zM236 462h448v586z" />
<glyph unicode="5" d="M168 112q0 42 25 69t59 27q25 0 44 -13t40 -40.5t28 -34.5q50 -50 148 -50q42 0 82 16.5t75.5 51t57 97t21.5 145.5q0 39 -10.5 79t-35.5 79.5t-61 70.5t-91 50t-122 19q-34 0 -89.5 -9.5t-78.5 -20.5q-6 0 -11 9t-5 19q108 552 116 594h296q36 0 82 4.5t74 9.5l28 4 q3 -2 8.5 -5.5t8 -5t5 -4.5t2.5 -7q0 -15 -18.5 -65t-41.5 -77q-112 -12 -232 -12h-168q-8 -40 -22.5 -115t-26.5 -135t-23 -110q40 16 104.5 27t107.5 11q85 0 157.5 -31.5t119.5 -82t73 -113.5t26 -127q0 -99 -44 -184.5t-116 -142t-163 -88t-185 -31.5q-112 0 -204 46 q-12 8 -26 31.5t-14 44.5z" />
<glyph unicode="6" d="M146 440q0 154 49 290.5t143 239.5q102 112 252.5 200.5t283.5 123.5q12 0 18 -21.5t6 -36.5q-457 -147 -556 -536q50 42 116 66t120 24q80 0 145 -26.5t105 -67t67 -93t38 -102t11 -95.5q0 -170 -118.5 -294t-287.5 -124q-87 0 -162.5 40t-124.5 105t-77 145t-28 162z M318 476q0 -70 15 -142t42.5 -136t74.5 -104t104 -40q95 0 157.5 89.5t62.5 224.5q0 89 -24.5 160t-83 117.5t-144.5 46.5q-123 0 -196 -80q-8 -56 -8 -136z" />
<glyph unicode="7" d="M124 966q60 191 84 300h608q31 0 83 3t53 3q12 0 12 -18q0 -9 -5.5 -25t-12 -30t-19 -39.5t-19.5 -39.5l-528 -1124q-6 -6 -20 -6q-25 0 -56.5 11.5t-31.5 24.5q92 139 234 412.5t238 477.5l96 204h-508q-58 0 -89.5 -35.5t-54.5 -118.5q-2 -12 -24 -12q-24 0 -40 12z " />
<glyph unicode="8" d="M168 308q0 26 6 51t13 45.5t23 43t26.5 37.5t33 35t33 29.5t35.5 27t32 22.5t32 21t26 16q10 7 0 12q-78 47 -141 129.5t-63 182.5q0 128 100 227t232 99q139 0 233.5 -79.5t94.5 -214.5q0 -55 -20.5 -103.5t-59 -87t-69 -62t-75.5 -51.5q-13 -3 0 -12 q105 -59 183.5 -151t78.5 -191q0 -147 -114.5 -249.5t-267.5 -102.5q-165 0 -268.5 90.5t-103.5 235.5zM326 314q0 -117 66.5 -188.5t151.5 -71.5q99 0 157.5 60t58.5 162q0 47 -25 95.5t-56 82t-74 67t-63 46.5t-38 23q-8 4 -12 4q-6 0 -8 -2q-83 -53 -120.5 -118 t-37.5 -160zM372 996q0 -52 18.5 -95.5t54 -76.5t61.5 -50.5t65 -40.5q6 -3 9 -5q8 -4 12 -4q6 0 12 4q136 90 136 244q0 93 -55 168.5t-141 75.5q-72 0 -122 -65t-50 -155z" />
<glyph unicode="9" d="M148 876q0 170 117.5 294t286.5 124q87 0 162.5 -40t124.5 -105t77 -145t28 -162q0 -154 -49 -290.5t-143 -239.5q-102 -112 -252.5 -200.5t-283.5 -123.5q-12 0 -18 21.5t-6 36.5q457 147 556 536q-50 -42 -116 -66t-120 -24q-80 0 -145 26.5t-104.5 67t-66.5 93.5 t-37.5 101.5t-10.5 95.5zM318 914q0 -90 24 -160.5t82 -117t144 -46.5q123 0 196 80q8 56 8 136q0 70 -15 142t-42.5 136t-74.5 104t-104 40q-94 0 -156 -89.5t-62 -224.5z" />
<glyph unicode=":" horiz-adv-x="452" d="M116 90q0 45 33.5 76.5t78.5 31.5t76.5 -31.5t31.5 -76.5t-31.5 -78.5t-76.5 -33.5t-78.5 33.5t-33.5 78.5zM116 754q0 45 33.5 76.5t78.5 31.5t76.5 -31.5t31.5 -76.5t-31.5 -78.5t-76.5 -33.5t-78.5 33.5t-33.5 78.5z" />
<glyph unicode=";" horiz-adv-x="464" d="M76 -236q23 17 38 30.5t39 42t36.5 66.5t12.5 83q0 32 -33 77t-33 85q0 35 33.5 66.5t84.5 31.5q28 0 52 -14q36 -62 36 -140q0 -84 -79 -205.5t-157 -164.5q-10 0 -20 16t-10 26zM122 754q0 45 33.5 76.5t78.5 31.5t76.5 -31.5t31.5 -76.5t-31.5 -78.5t-76.5 -33.5 t-78.5 33.5t-33.5 78.5z" />
<glyph unicode="&#x3c;" horiz-adv-x="984" d="M60 434q0 30 36 48l738 374q8 4 10 4q16 0 34 -94q1 -5 -0.5 -9.5t-3.5 -6.5l-2 -2l-652 -330l662 -336q6 -2 6 -12q0 -14 -12 -57t-20 -43q-2 0 -10 4l-750 380q-36 19 -36 80z" />
<glyph unicode="=" horiz-adv-x="1130" d="M136.5 266.5q1.5 22.5 14.5 50.5t26 33h806q12 -4 11.5 -25.5t-12.5 -49.5t-25 -35h-812q-10 4 -8.5 26.5zM136.5 554.5q1.5 22.5 14.5 50.5t26 33h806q12 -4 11.5 -25.5t-12.5 -49.5t-25 -35h-812q-10 4 -8.5 26.5z" />
<glyph unicode="&#x3e;" horiz-adv-x="986" d="M96 70q0 4 1.5 7t2.5 4l2 1l662 336l-650 330q-6 2 -6 16q0 25 12.5 60.5t19.5 35.5q2 0 10 -4l740 -374q34 -17 34 -48q0 -62 -34 -80l-750 -380q-8 -4 -10 -4q-8 0 -21 42.5t-13 57.5z" />
<glyph unicode="?" horiz-adv-x="712" d="M112 1196q0 49 18 74q28 14 96 14q41 0 92 -15.5t104 -47.5t97.5 -75t72.5 -104t28 -128q0 -103 -45.5 -172.5t-156.5 -133.5q-42 -25 -94.5 -66.5t-61.5 -57.5q-6 -11 -9 -30.5t-3.5 -33t0 -41.5t0.5 -35q-12 -24 -32 -26q-19 8 -26 22q-16 67 -16 182q0 40 10.5 74.5 t23 56.5t37.5 45t40.5 34t44.5 29q10 6 14 9q41 26 57.5 37t45 33.5t40 39t21.5 41.5t10 53q0 75 -44 119.5t-104 44.5t-106.5 -21t-65.5 -21q-27 0 -57.5 28t-30.5 72zM126 90q0 45 33.5 76.5t78.5 31.5t76.5 -31.5t31.5 -76.5t-31.5 -78.5t-76.5 -33.5t-78.5 33.5 t-33.5 78.5z" />
<glyph unicode="@" horiz-adv-x="1496" d="M98 340q0 118 31.5 235t95 221.5t150.5 185t206.5 127.5t254.5 47q114 0 211 -34t165.5 -93t117 -137.5t71.5 -167.5t23 -184q0 -151 -53.5 -278t-148.5 -201.5t-210 -74.5q-77 0 -121.5 42t-44.5 130q0 55 14 92q-17 -32 -45 -72.5t-66 -84.5t-84 -73.5t-87 -29.5 q-89 0 -139.5 79t-50.5 191q0 107 51.5 218t131.5 197t184.5 140.5t204.5 54.5q75 0 146 -26l-122 -632q-6 -24 -6 -50q0 -46 26.5 -68t69.5 -22q47 0 95.5 37.5t87 99t63 148t24.5 177.5q0 83 -19 160.5t-60 147t-99.5 121.5t-143.5 82.5t-186 30.5q-119 0 -225 -43 t-183.5 -116t-135 -167.5t-86 -199.5t-28.5 -210q0 -167 75.5 -298t190.5 -198q76 -44 150 -56q0 -11 -26.5 -23.5t-45.5 -12.5q-47 0 -78 12q-144 53 -245 212.5t-101 363.5zM536 302q0 -196 102 -196q48 0 107.5 70.5t106.5 173t66 198.5l40 204q-23 26 -82 26 q-56 0 -117.5 -42.5t-110.5 -109t-80.5 -153.5t-31.5 -171z" />
<glyph unicode="A" horiz-adv-x="1172" d="M-111 -6q-3 4 1.5 25.5t10.5 32.5q23 0 60.5 10.5t53.5 27.5q48 51 124 188l552 990q12 22 39 40t37.5 18t13.5 -6l172 -1068q20 -122 23.5 -139t21.5 -31t41 -20q38 -10 63 -10q4 -12 1 -32t-7 -26q-185 10 -219 10l-207 -10q-6 8 -1.5 29t13.5 29q114 0 114 61t-6 99 l-45 300h-397q-101 -183 -150.5 -278t-49.5 -122t16.5 -37.5t40.5 -14.5q48 -8 66 -8q3 -4 0 -26.5t-8 -31.5l-178 10zM384 578h351l-78 492z" />
<glyph unicode="B" horiz-adv-x="1132" d="M-10 23q5 21 13 29q28 0 78 9t60 30t34 141l166 854q20 102 20 144q-1 20 -47 28t-75 8q-5 7 -2 29t12 29q190 -10 218 -10l264 4q137 0 224 -61t87 -183q0 -216 -240 -342q75 -7 140.5 -86t65.5 -194q0 -202 -167 -330t-422 -128h-428q-6 8 -1 29zM323 86q15 -22 47 -28 t93 -6q158 0 256.5 103t98.5 285q0 80 -15 109t-35.5 53.5t-49.5 39.5q-70 36 -181 36h-114l-89 -450q-15 -65 -15 -107q0 -20 4 -35zM436 740h188q101 0 171.5 88.5t70.5 199.5q0 232 -227 232q-87 0 -100 -23t-36 -147z" />
<glyph unicode="C" horiz-adv-x="1290" d="M118 529.5q0 147.5 44.5 277.5t122 226t179.5 165q200 134 451 134h15q118 -2 322 -52q-12 -219 -20 -292q-2 -10 -22 -10t-40 10q1 9 1 17q-1 107 -83 183q-88 82 -210.5 82t-225.5 -50t-179.5 -139.5t-120.5 -223.5t-44 -251t13.5 -188t44.5 -140t76 -121 q101 -115 274 -115q263 0 422 304q24 0 56 -16q-6 -32 -64.5 -144.5t-79.5 -129.5q-79 -41 -167.5 -56.5t-234.5 -15.5t-271 75t-192 199t-67 271.5z" />
<glyph unicode="D" horiz-adv-x="1368" d="M-10 23q5 21 13 29q28 0 78 9t60 30t34 141l166 854q21 101 21 138q0 6 -1 10q-1 14 -47.5 23t-74.5 9q-5 7 -2 29t12 29q190 -10 218 -10l270 2q374 0 513 -260q54 -100 54 -240q0 -69 -13 -148q-70 -357 -325 -534q-198 -138 -509 -140h-466q-6 8 -1 29zM318 80 q13 -28 134 -28t221.5 35.5t186.5 104.5q183 148 239 434q19 106 19 194q0 312 -234 406q-90 36 -210.5 36t-131.5 -22q-16 -32 -38 -148l-170 -868q-19 -90 -19 -125q0 -13 3 -19z" />
<glyph unicode="E" horiz-adv-x="1108" d="M-12 23q4 21 12 29q28 0 79 9t57 23q14 28 38 148l166 854q19 95 19 135q0 7 -1 13q-1 14 -47.5 23t-74.5 9q-5 7 -1 29t13 29q190 -10 246 -10t262 7t310 7q-2 -14 -2 -58q0 -33 1 -82q3 -115 3 -132q-10 -10 -34 -10t-24 14q-7 113 -51.5 156.5t-124.5 43.5h-160 q-121 0 -132 -22q-21 -42 -40 -144l-74 -384q-2 -8 17 -9q29 -3 61 -3h98q126 0 157 20q26 16 40 45.5t23 50.5l12 28q6 14 29.5 14t30.5 -10l-72 -378q-8 -8 -31.5 -8t-26.5 16q-6 122 -26 140q-21 16 -174.5 16t-157.5 -18l-78 -396q-17 -85 -17 -118q1 -18 5 -22 q12 -12 36 -15t90 -3h88q154 0 245.5 60.5t158.5 203.5q6 12 36 12t38 -12q-13 -25 -57 -106q-88 -163 -109 -226l-632 8l-222 -6q-6 8 -2 29z" />
<glyph unicode="F" horiz-adv-x="1016" d="M-12 23q4 21 12 29q28 0 79 9t57 23q14 28 38 148l166 854q19 95 19 135q0 7 -1 13q-1 14 -47.5 23t-74.5 9q-5 7 -1 29t13 29q190 -10 246 -10t262 7t310 7q-2 -14 -2 -58q0 -33 1 -82q3 -115 3 -132q-10 -10 -34 -10t-24 14q-7 113 -51.5 156.5t-124.5 43.5h-160 q-121 0 -132 -22q-21 -42 -40 -144l-74 -384q-2 -8 17 -9q29 -3 61 -3h98q126 0 157 20q26 16 40 45.5t23 50.5l12 28q6 14 29.5 14t30.5 -10l-72 -378q-8 -8 -31.5 -8t-26.5 16q-6 122 -26 140q-21 16 -174.5 16t-157.5 -18l-74 -382q-19 -95 -19 -135q0 -7 1 -13 q1 -14 55.5 -23t84.5 -9q5 -7 1 -29t-13 -29q-190 10 -234 10l-220 -10q-6 8 -2 29z" />
<glyph unicode="G" horiz-adv-x="1394" d="M118 530q0 147 44.5 277t122 226t179.5 165q200 134 451 134h15q118 -2 322 -52l-20 -292q-2 -10 -22 -10t-40 10q1 9 1 17q0 107 -83 183q-88 82 -210.5 82t-225.5 -50t-179.5 -139.5t-120.5 -223.5t-44 -250.5t14 -188.5t45 -140.5t76 -120.5q100 -115 267 -115 q122 0 224 68q17 11 20 34l40 206q21 101 21 138q0 6 -1 10q-1 14 -52 23t-80 9q-5 7 -2 29t12 29q190 -10 215.5 -10t220.5 10q6 -8 3 -29t-11 -29q-27 0 -74 -9t-54 -23q-14 -28 -38 -148l-28 -142q-6 -19 -1 -44.5t5 -27.5q0 -21 -44 -44q-102 -53 -189 -80.5t-243 -27.5 t-278.5 74.5t-190 199.5t-67.5 272z" />
<glyph unicode="H" horiz-adv-x="1372" d="M-13 23q4 21 12 29q28 0 79 9t57 23q14 28 38 148l166 854q19 95 19 135q0 7 -1 13q-1 14 -47.5 23t-74.5 9q-5 7 -1 29t13 29q190 -10 216.5 -10t221.5 10q6 -8 1 -29t-13 -29q-28 0 -78 -9t-56 -23q-17 -34 -38 -148l-72 -374h584l72 374q19 100 19 137q0 7 -1 11 q-1 14 -47.5 23t-74.5 9q-5 7 -1 29t13 29q190 -10 216.5 -10t221.5 10q6 -8 1 -29t-13 -29q-28 0 -78 -9t-60 -30t-34 -141l-166 -854q-21 -101 -21 -138q0 -6 1 -10q1 -14 47.5 -23t74.5 -9q5 -7 1 -29t-13 -29q-190 10 -215.5 10t-220.5 -10q-6 8 -2 29t12 29q28 0 79 9 t57 23q14 28 38 148l78 400h-584l-78 -400q-20 -111 -20 -141v-7q1 -14 47.5 -23t74.5 -9q5 -7 1 -29t-13 -29q-190 10 -215.5 10t-220.5 -10q-6 8 -2 29z" />
<glyph unicode="I" horiz-adv-x="626" d="M-13 23q4 21 12 29q28 0 79 9t57 23q14 28 38 148l166 854q19 95 19 135q0 7 -1 13q-1 14 -47.5 23t-74.5 9q-5 7 -1 29t13 29q190 -10 216.5 -10t221.5 10q6 -8 1 -29t-13 -29q-28 0 -78 -9t-60 -30t-34 -141l-166 -854q-21 -101 -21 -138q0 -6 1 -10q1 -14 47.5 -23 t74.5 -9q5 -7 1 -29t-13 -29q-190 10 -215.5 10t-220.5 -10q-6 8 -2 29z" />
<glyph unicode="J" horiz-adv-x="626" d="M-216 -440l2 12q162 51 244.5 198t137.5 448l159 868q19 100 19 137q0 6 -1 11q-1 14 -47.5 23t-74.5 9q-5 7 -1 29t13 29q190 -10 216.5 -10t221.5 10q6 -8 1 -29t-13 -29q-28 0 -78 -9t-56 -23q-17 -34 -38 -148l-161 -854q-80 -419 -308 -604q-117 -94 -230 -94 q-6 9 -6 26z" />
<glyph unicode="K" horiz-adv-x="1228" d="M-11 23q4 21 12 29q28 0 78 9t60 30t34 141l166 854q21 101 21 138q0 6 -1 10q-1 14 -47.5 23t-74.5 9q-5 7 -1 29t13 29q190 -10 215.5 -10t220.5 10q6 -8 2 -29t-12 -29q-28 0 -79 -9t-57 -23q-14 -28 -38 -148l-78 -406q63 37 167 127.5t145.5 127t51.5 45t36 32 t33 30.5l28 28q21 21 36 37.5t44.5 49.5t33.5 53.5t-6.5 32t-31.5 15.5q-30 6 -55 6q-7 22 12 60l210 -12l204 12q2 -11 -3.5 -35.5t-9.5 -24.5t-15 -0.5t-21.5 -2t-27 -4t-33 -8t-33.5 -13.5q-39 -16 -90 -64.5t-123.5 -114.5t-108.5 -97q-116 -102 -263 -228 q-15 -13 -4 -32q246 -407 362 -556q33 -40 74 -63t110 -29q5 -6 -1 -27.5t-11 -30.5q-207 0 -266.5 25t-105 87t-318.5 502q-2 6 -14 6t-20 -4l-74 -378q-19 -95 -19 -135q0 -7 1 -13q1 -14 47.5 -23t74.5 -9q5 -7 1 -29t-13 -29q-190 10 -215.5 10t-220.5 -10q-6 8 -2 29z " />
<glyph unicode="L" horiz-adv-x="1060" d="M-10 23q5 21 13 29q28 0 78 9t60 30t34 141l166 854q21 101 21 138q0 6 -1 10q-1 14 -47.5 23t-74.5 9q-5 7 -2 29t12 29q190 -10 216.5 -10t221.5 10q6 -8 1 -29t-13 -29q-28 0 -78 -9t-56 -23q-17 -34 -38 -148l-171 -862q-18 -91 -18 -126q0 -16 4 -20q12 -12 36 -15 t90 -3h106q120 0 217 55t170 209q6 12 36 12t38 -12q-13 -25 -57 -106q-88 -163 -109 -226l-632 8l-222 -6q-6 8 -1 29z" />
<glyph unicode="M" horiz-adv-x="1676" d="M-48 -6q-2 4 1.5 25.5t10.5 32.5q30 0 86 9.5t75.5 33t36.5 93.5q192 843 208 928q13 73 14 98v6q-2 20 -51 33t-73 13q-3 9 1.5 31.5t10.5 26.5q116 -8 187 -8t155 8q10 -105 105.5 -575.5t94.5 -470.5q-2 0 337 604l113 202l128 240q116 -8 172 -8t152 8l-4 -58 q-26 0 -78.5 -11.5t-61.5 -24.5q-16 -29 -24 -76l-152 -874q-17 -95 -17 -152q0 -24 3 -42t48.5 -26t73.5 -8q9 -35 -6 -58q-185 10 -208 10t-238 -10q-2 4 1.5 25.5t10.5 32.5q22 0 65.5 6.5t60.5 15.5q16 9 25.5 52.5t34.5 198t65.5 406.5t64.5 401l-586 -1034 q-11 -20 -43.5 -59.5t-46.5 -42.5q-2 -1 -16 4l-228 1168q-210 -980 -220 -1016q-8 -26 -7 -48q0 -8 1 -16q4 -19 56.5 -27.5t83.5 -8.5q4 -8 0 -30t-8 -28l-194 10z" />
<glyph unicode="N" horiz-adv-x="1464" d="M-25 18.5q3 18.5 13 33.5q26 0 83 12t69 28q28 38 46 136l168 868q11 61 13 85t-5 51q-5 16 -56 25t-80 9q-9 34 10 58q168 -8 199 -8t135 8q31 -78 247 -459.5t291 -540.5l148 758q12 62 12 101q0 27 -6 43q-7 18 -54 29t-80 11q-4 11 -1.5 30.5t7.5 27.5q148 -8 194 -8 t218 8q11 -28 -8 -58q-26 0 -82 -11t-70 -30q-23 -32 -42 -133l-158 -814q-37 -193 -50 -280q-8 -8 -28 -8q-37 0 -60 46l-600 1102l-176 -908q-12 -61 -14 -84t6 -54q5 -14 56 -27t78 -13q8 -23 -8 -58q-185 10 -208 10l-206 -10q-4 6 -1 24.5z" />
<glyph unicode="O" horiz-adv-x="1420" d="M122 550.5q0 163.5 59.5 311.5t157.5 249.5t226.5 160t273.5 58.5t263 -75t180 -203t62 -293.5t-56.5 -314t-152.5 -250t-225 -159t-279.5 -57.5t-269 76.5t-179 204.5t-60.5 291.5zM310 575.5q0 -113.5 9.5 -180.5t34 -134t62.5 -115q84 -110 240 -110q111 0 206.5 66.5 t158.5 173.5q135 231 135 510q0 234 -101 370q-86 114 -249 114q-88 0 -178.5 -56.5t-161 -152.5t-113.5 -234t-43 -251.5z" />
<glyph unicode="P" horiz-adv-x="1022" d="M-13 23q4 21 12 29q28 0 79 9t57 23q14 28 38 148l166 854q19 95 19 135q0 7 -1 13q-1 14 -47.5 23t-74.5 9q-5 7 -1 29t13 29q190 -10 222 -10l215 4q160 0 260.5 -83t100.5 -213.5t-65.5 -235t-172.5 -163.5t-228 -59q-63 0 -89 20q-16 16 -16 26t8 14q16 -8 69 -8 t109.5 27t102.5 75q104 107 104 270q0 272 -231 272q-85 0 -96.5 -20.5t-37.5 -149.5l-169 -858q-19 -100 -19 -137q0 -7 1 -11q1 -14 47.5 -23t74.5 -9q5 -7 1 -29t-13 -29q-190 10 -215.5 10t-220.5 -10q-6 8 -2 29z" />
<glyph unicode="Q" horiz-adv-x="1420" d="M122 534.5q0 179.5 59.5 327.5t157.5 249.5t226.5 160t273.5 58.5t263 -75t180 -203t62 -283.5t-44 -289.5t-121 -233q-162 -206 -407 -255q34 -20 92.5 -58t85.5 -53q81 -42 186 -42t196 26q10 0 24 -10t14 -16q-216 -110 -352 -110q-123 0 -268 108q-169 128 -310 178 t-229.5 195.5t-88.5 325zM310 575.5q0 -113.5 9.5 -180.5t34 -134t62.5 -115q84 -110 240 -110q111 0 206.5 66.5t158.5 173.5q135 231 135 510q0 234 -101 370q-86 114 -249 114q-88 0 -178.5 -56.5t-161 -152.5t-113.5 -234t-43 -251.5z" />
<glyph unicode="R" horiz-adv-x="1158" d="M-13 23q4 21 12 29q28 0 79 9t57 23q14 28 38 148l166 854q19 95 19 135q0 7 -1 13q-1 14 -47.5 23t-74.5 9q-5 7 -1 29t13 29q190 -10 224 -10l264 4q134 0 223.5 -74t89.5 -208q0 -198 -212 -337q-56 -37 -116 -59q99 -272 211 -468q36 -63 74.5 -88.5t111.5 -31.5 q5 -6 -1 -27.5t-11 -30.5q-145 0 -225 18.5t-112 81.5q-108 213 -211 488q-9 24 -52 24h-98l-72 -374q-20 -111 -20 -141v-7q1 -14 47.5 -23t74.5 -9q5 -7 1 -29t-13 -29q-190 10 -215.5 10t-220.5 -10q-6 8 -2 29zM419 666h100q126 0 234 87q52 42 84.5 113t32.5 129 t-4 85.5t-19 61.5t-39 59q-57 59 -157.5 59t-112 -20.5t-37.5 -149.5z" />
<glyph unicode="S" horiz-adv-x="944" d="M68 368q9 12 36.5 12t33.5 -12q0 -79 30 -142.5t60 -99.5q70 -82 178 -82t183 68t75 182q0 75 -22 113t-34.5 57t-40.5 45q-63 58 -128.5 105.5t-89.5 65.5t-54.5 48.5t-48.5 59.5q-42 70 -42 158.5t39.5 161.5t101 121t135.5 75.5t129.5 27.5t95 -5t60.5 -9.5t68 -17 t65 -16.5q-10 -120 -42 -288q-3 -14 -25.5 -14t-36.5 14q1 19 1 36q0 101 -39 164q-46 74 -154 74t-175 -72t-67 -158q0 -110 76 -186q39 -39 89 -76.5t66 -50t53.5 -40.5t58.5 -44.5t51.5 -47t46.5 -57.5q41 -69 41 -155.5t-41 -163.5t-107 -127q-139 -108 -298 -108 t-304 84q-16 70 -22 172q-3 59 -4 93q0 24 2 35z" />
<glyph unicode="T" horiz-adv-x="1174" d="M118 1000q57 143 116 344q16 8 36 -4q50 -30 104 -30h726q21 0 60 10t60 21t34 3q-18 -220 -18 -344q-17 -17 -39 -15.5t-25 11.5v13q0 103 -30 165q-32 66 -98 66h-236l-198 -1008q-21 -101 -21 -138q0 -6 1 -10q1 -14 47.5 -23t74.5 -9q5 -7 2 -29t-12 -29 q-190 10 -216.5 10t-221.5 -10q-6 8 -1 29t13 29q28 0 78 9t60 30t34 141l198 1008h-240q-66 0 -124.5 -66.5t-101.5 -177.5q-7 -10 -29 -11.5t-33 15.5z" />
<glyph unicode="U" horiz-adv-x="1322" d="M195 502l114 584q21 101 21 138q0 6 -1 10q-1 14 -47.5 23t-74.5 9q-5 7 -1 29t13 29q190 -10 215.5 -10t220.5 10q6 -8 1 -29t-13 -29q-28 0 -78 -9t-60 -30t-34 -141l-96 -494q-20 -104 -19 -185q0 -102 31 -167q65 -132 240 -132q240 0 345 226q40 88 66 214l106 542 q12 61 14 84t-6 54q-5 14 -52 27t-74 13q-8 23 8 58l200 -10l204 10q10 -26 -10 -58q-26 0 -84 -12t-72 -31q-23 -32 -42 -133l-106 -540q-57 -293 -196 -426.5t-358 -133.5t-319 142q-69 99 -69 238q0 61 13 130z" />
<glyph unicode="V" horiz-adv-x="1192" d="M125 1266q-4 0 3 28t9 30l214 -10q42 0 232 10q2 -10 -3 -33.5t-11 -24.5q-45 0 -83 -20q-37 -22 -43 -54q-2 -10 -2 -26q0 -35 9 -98q13 -92 42 -289q78 -517 80 -523l451 792q43 73 50.5 117.5t-4.5 61.5t-33 25q-39 14 -65 14q-6 3 -2.5 27t12.5 31q170 -10 202 -10 t59.5 1.5t59.5 4.5t59 4q3 -7 -3 -32.5t-11 -25.5q-20 0 -62 -13t-78 -49t-122 -192l-546 -948q-38 -68 -84 -68q-8 0 -71.5 411.5t-90.5 577.5t-56 235q-9 21 -48 33.5t-64 12.5z" />
<glyph unicode="W" horiz-adv-x="1682" d="M131 1266q-4 0 3 28t9 30l201 -10q37 0 227 10q2 -10 -4 -33.5t-12 -24.5q-45 0 -82.5 -20.5t-41.5 -45.5q-1 -3 -1 -13q0 -102 64 -898l459 969q13 27 38.5 46.5t36 19.5t13.5 -6t8 -26q16 -171 116 -1004l344 760q40 91 46 126.5t-7 52.5t-34 25q-42 14 -69 14 q-6 3 -1.5 27t13.5 31q170 -10 203 -10t60.5 1.5t59.5 4.5t59 4q3 -7 -3 -32.5t-11 -25.5q-16 0 -58.5 -15t-77.5 -42t-90 -147l-466 -998q-12 -26 -38.5 -47t-45.5 -21q-12 0 -12 32q-21 185 -63.5 519t-59.5 475l-455 -958q-12 -26 -38 -47t-37 -21q-21 0 -21 32l-96 1036 q-1 9 -2 28t-2 26.5t-2 22t-2.5 21t-4 18t-5.5 18.5q-8 17 -18.5 31t-44.5 25.5t-55 11.5z" />
<glyph unicode="X" horiz-adv-x="1240" d="M-117 -6q-3 8 3.5 30t10.5 28q56 0 117 24t91 56l474 532l-178 432q-21 55 -41.5 84.5t-47.5 48.5q-53 37 -105 37q-4 2 -4 23.5t16 34.5l230 -10q50 0 240 10q2 -11 -2.5 -34.5t-11.5 -23.5q-51 0 -85 -20t-39.5 -43t10.5 -61l148 -358q308 347 333 384t26.5 46.5 t-6.5 19.5t-38 20t-77 10q-6 2 -2 24.5t10 33.5q123 -10 206 -10t198 10q3 -8 -1.5 -29t-14.5 -29q-46 0 -98 -24t-82 -56l-426 -462l246 -590q17 -40 65 -60t101 -20q4 -6 -1.5 -29t-8.5 -29l-188 10q-14 0 -274 -10q-6 8 -1.5 33t11.5 25q25 0 70 16q49 16 49 48 q0 8 -3 16l-192 468q-406 -457 -414 -500q-3 -21 41 -34.5t91 -13.5q4 -8 0 -30t-8 -28q-170 10 -209 10t-229 -10z" />
<glyph unicode="Y" horiz-adv-x="1112" d="M114 1289.5q0 21.5 16 34.5l230 -10q50 0 240 10q2 -11 -2.5 -34.5t-11.5 -23.5q-51 0 -85 -20t-39 -40q-1 -4 -1 -10q0 -20 11 -54l161 -481q94 132 209.5 304.5t133 202.5t19.5 42t-7 22.5t-40 21t-78 10.5q-4 5 -0.5 28.5t8.5 29.5q170 -10 199.5 -10t61.5 1.5t69 4.5 t62 4q0 -7 -6 -32.5t-10 -25.5q-121 0 -178 -80l-410 -582q-20 -29 -20 -62l-62 -308q-21 -101 -21 -138q0 -6 1 -10q1 -14 47.5 -23t74.5 -9q5 -7 2 -29t-12 -29q-190 10 -216.5 10t-221.5 -10q-6 8 -1 29t13 29q28 0 78 9t60 30t34 141l58 302q5 33 -2 56l-166 506 q-17 54 -38.5 83.5t-49.5 48.5q-54 38 -106 38q-4 2 -4 23.5z" />
<glyph unicode="Z" horiz-adv-x="1204" d="M-19 28l1036 1232l-458 -2q-92 -1 -172 -74.5t-136 -199.5q-5 -8 -19.5 -8t-30 5.5t-18.5 10.5q64 119 128 346q101 -16 150 -16h362q131 0 394 20q7 -2 17 -17.5t7 -25.5t-170 -213q-495 -599 -865 -1022h489q120 0 219 107q47 51 113 173q3 6 29 6t39 -18 q-94 -196 -146 -332h-940q-15 0 -25.5 9.5t-2.5 18.5z" />
<glyph unicode="[" horiz-adv-x="518" d="M158 -230v1620q0 5 1.5 13.5t11 20.5t25.5 12q73 0 149.5 3t116.5 6l40 3q6 -6 6 -18q0 -25 -20 -32q-34 -12 -92.5 -23.5t-99.5 -16.5l-42 -6v-1544q158 -20 234 -46q20 -7 20 -32q0 -5 -1.5 -9.5t-2.5 -6.5l-2 -2q-142 12 -306 12q-16 0 -25.5 12t-11 20.5t-1.5 13.5z " />
<glyph unicode="\" horiz-adv-x="802" d="M62 1500q8 14 40 14q16 0 34 -10t22 -22q580 -1504 580 -1516q-2 -7 -15.5 -14.5t-30.5 -7.5q-11 0 -24.5 9t-17.5 19q-506 1316 -588 1528z" />
<glyph unicode="]" horiz-adv-x="520" d="M12 -270q0 25 20 32q34 12 92.5 23.5t99.5 16.5l42 6v1544q-158 20 -234 46q-20 7 -20 32q0 5 1.5 9.5t2.5 6.5l2 2q142 -12 306 -12q16 0 25.5 -12t11 -20.5t1.5 -13.5v-1620q0 -5 -1.5 -13.5t-11 -20.5t-25.5 -12q-73 0 -149.5 -3t-116.5 -6l-40 -3q-6 6 -6 18z" />
<glyph unicode="^" horiz-adv-x="780" d="M122 878q29 50 73 124t77.5 132.5t69.5 129.5q13 26 30 26q19 0 32 -26q36 -71 68 -128t78 -135t72 -123q0 -14 -10 -23t-20 -9q-41 43 -96 107.5t-90 107.5l-34 43q-126 -162 -218 -258q-10 0 -21 9t-11 23z" />
<glyph unicode="_" horiz-adv-x="950" d="M-78 -74.5q0 11.5 18.5 56t29.5 44.5h828q12 0 12 -8q0 -13 -20 -55q-21 -47 -28 -49h-830q-10 0 -10 11.5z" />
<glyph unicode="`" horiz-adv-x="402" d="M40 1182q0 31 26 45.5t61.5 14.5t60.5 -17.5t109.5 -115t84.5 -106t-6 -16t-10 -7.5q-27 0 -176.5 88t-149.5 114z" />
<glyph unicode="a" horiz-adv-x="898" d="M38 235.5q0 115.5 55 237t139.5 207t185.5 138t189 52.5t159 -26l-122 -632q-12 -43 -12 -68q0 -13 4 -22q10 -24 20 -24q35 0 140 116q5 0 12.5 -14.5t7.5 -23.5q-25 -42 -112.5 -115t-149.5 -73q-31 0 -49.5 29t-18.5 68t11 100t13 75q-37 -67 -97 -138 q-114 -132 -196 -132t-130.5 65t-48.5 180.5zM186 302q0 -196 102 -196q48 0 107.5 70.5t106.5 173t66 198.5l42 212q-26 30 -96.5 30t-148.5 -73.5t-128.5 -188t-50.5 -226.5z" />
<glyph unicode="b" horiz-adv-x="858" d="M86 222q0 22 12 94l158 802q18 81 18 106q0 38 -122 38q-4 6 -1 21t9 21q110 10 264 66q12 -7 12 -32.5t-26 -155.5l-124 -612q133 221 287 285q36 15 63 15q68 0 104 -60.5t36 -177.5t-48.5 -241t-123 -210.5t-163.5 -139.5t-171.5 -53t-133 62t-50.5 172zM234 122 q24 -68 88.5 -68t122.5 63t97 151q86 199 86 336q0 114 -36 143q-17 13 -45.5 13t-76 -39.5t-94.5 -100.5q-109 -146 -140 -308q-13 -63 -13 -111q0 -46 11 -79z" />
<glyph unicode="c" horiz-adv-x="718" d="M48 267.5q0 127.5 49.5 239t124 189.5t163 126t159.5 48t130 -50q18 -24 18 -57.5t-17.5 -60t-44.5 -26.5q-56 0 -78 40q-14 22 -24 34q-30 38 -75.5 38t-89 -35.5t-79.5 -95.5q-80 -136 -80 -333q0 -218 138 -218q77 0 206 138q5 0 14.5 -15.5t9.5 -24.5 q-25 -43 -89 -101q-125 -115 -222 -115t-155 76t-58 203.5z" />
<glyph unicode="d" horiz-adv-x="898" d="M38 232q0 152 87.5 302t220 243t260.5 93h26l46 248q2 12 7 36q11 54 11 70q0 38 -122 38q-4 6 -1 21t9 21q110 10 264 66q12 -7 12 -32.5t-26 -155.5l-188 -970q-8 -32 -8 -73t20 -41q35 0 140 116q5 0 12.5 -14.5t7.5 -23.5q-25 -42 -112.5 -115t-149.5 -73 q-31 0 -49.5 29t-18.5 68t9 84.5t15 90.5q-60 -117 -173 -212q-68 -58 -123 -58q-86 0 -131 72t-45 170zM186 300q0 -194 102 -194q49 0 108.5 71t106 174.5t65.5 200.5l24 130q2 10 2 20q0 27 -14 53q-20 35 -58 35q-79 0 -158 -74t-128.5 -188.5t-49.5 -227.5z" />
<glyph unicode="e" horiz-adv-x="726" d="M46 261.5q0 123.5 46.5 233t118 191t162 133t168 51.5t108.5 -36t31 -96t-56.5 -128.5t-134.5 -116t-156.5 -77.5t-126.5 -30q-4 -12 -4 -64q0 -216 141 -216q74 0 203 138q5 0 14.5 -15.5t9.5 -24.5q-27 -46 -92 -104q-124 -112 -221 -112t-154 75t-57 198.5zM210 436 q67 0 190 80q54 35 93 87.5t39 97.5t-26 66t-66.5 21t-85 -40t-74.5 -98q-61 -121 -70 -214z" />
<glyph unicode="f" horiz-adv-x="592" d="M-248 -416q0 10 2 32q12 80 58 80q29 0 45 -15t38.5 -38t50.5 -23q56 0 93 101.5t87 356.5l120 674h-170q-4 0 -4 11.5t30 37t62 25.5h94q47 238 168 391t246 153q81 0 108 -50q-6 -112 -60 -112q-29 0 -45 15t-38.5 38t-50.5 23q-56 0 -93 -101.5t-87 -356.5h200 q10 0 10 -22.5t-18 -51.5h-206q-70 -414 -117.5 -659.5t-169 -402t-245.5 -156.5q-81 0 -108 50z" />
<glyph unicode="g" horiz-adv-x="824" d="M-96 -270q0 155 288 282l-36 24q-50 33 -50 69.5t71 80.5t129 58q-57 0 -136 57q-38 27 -64 74t-26 103q0 109 56 201t142.5 142.5t179.5 50.5q64 0 101.5 -14.5t59 -25t46.5 -4t52.5 17.5t36.5 12q23 -7 52.5 -29.5t29.5 -40.5q0 -28 -24 -28l-146 2q0 -2 8 -27 q20 -68 20 -119.5t-15.5 -105.5t-36.5 -88.5t-50 -64.5q-42 -45 -73.5 -63.5t-93.5 -42.5q-143 -55 -143 -87q0 -17 41.5 -35t100.5 -39.5t118 -50t100.5 -79.5t41.5 -116q0 -142 -126.5 -226t-341.5 -84q-138 0 -225 52.5t-87 143.5zM52 -220q0 -176 286 -176 q97 0 157.5 47t60.5 113q0 121 -224 199q-32 11 -78 25q-202 -84 -202 -208zM228 494q0 -80 32 -136t92.5 -56t106.5 46q87 88 87 240q0 82 -34 154t-91 72t-103 -52q-90 -100 -90 -268z" />
<glyph unicode="h" horiz-adv-x="940" d="M44 0l216 1118q2 12 7 36q11 54 11 70q0 38 -122 38q-4 6 -1 21t9 21q110 10 264 66q12 -7 12 -32.5t-26 -155.5l-138 -706q24 48 92 133t116 137q116 124 190 124q110 0 110 -132q0 -85 -28 -218l-66 -308q-8 -32 -8 -73t20 -41q35 0 140 116q5 0 12.5 -14.5t7.5 -23.5 q-25 -42 -112.5 -115t-149.5 -73q-32 0 -50 29t-18 75.5t14 105.5l70 330q14 63 14 106.5t-7.5 65.5t-32.5 22t-78 -43.5t-108.5 -110t-104.5 -157t-64 -168.5t-51 -243q-27 -8 -67.5 -8t-72.5 8z" />
<glyph unicode="i" horiz-adv-x="524" d="M50 682q26 44 108.5 116t143.5 72q32 0 55 -30t23 -68t-14 -112l-102 -448q-8 -40 -8 -77t20 -37q35 0 140 116q5 0 12.5 -14.5t7.5 -23.5q-25 -42 -112.5 -115t-149.5 -73q-31 0 -49.5 29t-18.5 68t14 113l102 448q8 48 8 81t-20 33q-35 0 -140 -116q-5 0 -12.5 14.5 t-7.5 23.5zM232 1183.5q0 40.5 30 74.5t67.5 34t58 -24t20.5 -64t-31.5 -76t-69.5 -36t-56.5 25.5t-18.5 66z" />
<glyph unicode="j" horiz-adv-x="498" d="M-170 -430q101 57 176 182.5t108 291.5l120 602q8 48 8 81t-20 33q-35 0 -140 -116q-5 0 -12.5 14.5t-7.5 23.5q26 44 108.5 116t143.5 72q32 0 55 -30t23 -68t-14 -112l-110 -570q-41 -203 -142 -338q-58 -76 -138 -137t-140 -85q-18 15 -18 40zM266 1183.5 q0 40.5 30 74.5t67.5 34t58 -24t20.5 -64t-31.5 -76t-69.5 -36t-56.5 25.5t-18.5 66z" />
<glyph unicode="k" horiz-adv-x="920" d="M44 0l218 1118q18 81 18 106q0 38 -122 38q-4 6 -1 21t9 21q110 10 264 66q12 -7 12 -32.5t-26 -155.5l-104 -538l22 26q165 200 322 200q54 0 99 -39.5t45 -101t-34 -115.5t-94 -91q-116 -71 -294 -101q132 -197 192 -258.5t122 -61.5q22 0 67 40.5t69 71.5q4 0 12 -15 t8 -23q-21 -37 -104 -110.5t-130.5 -73.5t-84.5 20t-65 48t-59.5 74t-51.5 82t-49 88.5t-44 77.5l-74 -382q-37 -10 -69.5 -10t-72.5 10zM276 460q92 0 164.5 30t112.5 58q91 65 91 160q0 32 -14 50t-52 18q-83 0 -183 -109.5t-119 -206.5z" />
<glyph unicode="l" horiz-adv-x="486" d="M74 85q0 39 14 113l180 920q18 81 18 106q0 38 -122 38q-4 6 -1 21t9 21q110 10 264 66q12 -7 12 -32.5t-26 -155.5l-190 -970q-8 -32 -8 -73t20 -41q35 0 140 116q5 0 12.5 -14.5t7.5 -23.5q-25 -42 -112.5 -115t-149.5 -73q-32 0 -50 29t-18 68z" />
<glyph unicode="m" horiz-adv-x="1428" d="M44 682q26 44 108.5 116t143.5 72q32 0 55 -30t23 -63q0 -54 -56 -303q115 199 233 320q75 76 123 76q134 0 134 -190q0 -35 -9.5 -93.5t-18.5 -84.5q66 116 182 242t184 126t97 -33.5t29 -111t-28 -205.5l-66 -308q-8 -40 -8 -77t20 -37q35 0 140 116q5 0 12.5 -14.5 t7.5 -23.5q-25 -42 -112.5 -115t-149.5 -73q-31 0 -49.5 29t-18.5 68t14 113l70 330q14 63 14 108.5t-6.5 65.5t-39 20t-108 -71t-145 -181.5t-87.5 -205.5l-50 -264q-42 -6 -73.5 -6t-70.5 6l112 568q8 43 8 76q0 78 -42 78t-116 -78.5t-139.5 -193t-84.5 -206.5l-50 -244 q-29 -8 -61.5 -8t-80.5 8l132 646q8 48 8 81t-20 33q-35 0 -140 -116q-5 0 -12.5 14.5t-7.5 23.5z" />
<glyph unicode="n" horiz-adv-x="994" d="M44 682q26 44 108.5 116t143.5 72q32 0 55 -30t23 -71.5t-16 -108.5l-36 -168q23 46 89.5 128t114.5 132q113 118 183.5 118t99.5 -33.5t29 -107t-28 -209.5l-66 -308q-8 -40 -8 -77t20 -37q35 0 140 116q5 0 12.5 -14.5t7.5 -23.5q-25 -42 -112.5 -115t-149.5 -73 q-31 0 -49.5 29t-18.5 68t14 113l70 330q14 63 14 108.5t-6.5 65.5t-33 20t-81 -40.5t-112 -104t-108 -154.5t-63 -155t-54.5 -268q-32 -8 -71 -8t-71 8l132 646q8 48 8 81t-20 33q-35 0 -140 -116q-5 0 -12.5 14.5t-7.5 23.5z" />
<glyph unicode="o" horiz-adv-x="828" d="M48 260.5q0 118.5 39 226t101.5 191.5t146 138t167.5 54q116 0 175 -79.5t59 -198.5t-39.5 -225.5t-102 -189t-146.5 -135t-184 -52.5t-158 76t-58 194.5zM204 337q0 -283 114 -283q59 0 110.5 48.5t83.5 123.5q68 158 68 320q0 260 -106 260q-60 0 -112.5 -48 t-85.5 -122q-72 -158 -72 -299z" />
<glyph unicode="p" horiz-adv-x="896" d="M-109.5 -442.5q0.5 25.5 8.5 30.5q54 0 76 28t36 90l158 794l-96 -96q-12 15 -12 31.5t6 22.5l118 126l52 282q29 8 70.5 8t69.5 -14q-25 -118 -32 -168q192 178 296 178q174 0 174 -242q0 -151 -74.5 -300.5t-192.5 -243.5t-237 -94q-76 0 -92 26l-66 -306 q-6 -27 -6 -47q0 -46 26.5 -53.5t95.5 -7.5q6 -1 3.5 -27t-9.5 -29l-70 2q-147 0 -296 -18q-7 2 -6.5 27.5zM259 262q-5 -29 -5 -54q0 -50 20 -89q31 -59 79 -59q81 0 155.5 87t116.5 213t42 246q0 154 -106 154q-48 0 -121 -50.5t-115 -109.5z" />
<glyph unicode="q" horiz-adv-x="852" d="M38 232q0 152 87.5 302t220 243t260.5 93q87 0 158 -26l-122 -632l-92 -512q-4 -32 -4 -43.5t2.5 -20t10.5 -18.5q16 -20 79 -20q10 0 5.5 -25.5t-9.5 -28.5l-80 2q-152 0 -300 -16q-4 3 -3 28.5t9 25.5q124 13 136 74l112 602q-37 -67 -97 -138q-114 -132 -198.5 -132 t-129.5 72t-45 170zM186 300q0 -194 102 -194q49 0 108.5 71t106 174.5t65.5 200.5l24 130q2 10 2 20q0 27 -14 53q-20 35 -58 35q-79 0 -158 -74t-128.5 -188.5t-49.5 -227.5z" />
<glyph unicode="r" horiz-adv-x="712" d="M42 682q26 44 108.5 116t143.5 72q32 0 55 -30t23 -63q0 -47 -50 -285q76 183 188 310q60 68 112 68t90 -42q18 -22 18 -59t-19 -61t-52.5 -24t-53.5 23t-51 23t-90 -77t-112.5 -193t-71.5 -216l-44 -244q-33 -6 -69.5 -6t-72.5 6l120 646q8 48 8 81t-20 33 q-35 0 -140 -116q-5 0 -12.5 14.5t-7.5 23.5z" />
<glyph unicode="s" horiz-adv-x="644" d="M4 115.5q0 34.5 21.5 59.5t44 25t35 -9t19.5 -19.5t20 -31t20 -30.5q43 -58 101 -58t80.5 36.5t22.5 63t-2 37t-3.5 19t-7 20t-8.5 18t-11.5 18.5t-12 17t-14.5 18.5t-14 17t-16 18t-32.5 36.5t-36.5 42.5t-42 58.5q-48 71 -48 157t79.5 166.5t193.5 80.5t177 -54 q20 -29 20 -64t-19 -58.5t-55.5 -23.5t-87.5 70q-5 9 -17.5 25t-16 18.5t-11 7t-13.5 6.5q-17 5 -36 5q-47 0 -72.5 -36.5t-25.5 -67.5t6 -52t24 -46.5t27 -37.5t39 -44.5t62 -69.5q96 -113 96 -221.5t-81.5 -176.5t-197.5 -68t-187 60q-20 33 -20 67.5z" />
<glyph unicode="t" horiz-adv-x="556" d="M82 763.5q0 11.5 30 37t62 25.5h60l22 118q24 30 71.5 81t62 51t30.5 -12l-44 -238h150q10 0 10 -22.5t-18 -51.5h-156l-106 -540q-8 -40 -8 -77t20 -37q35 0 140 116q5 0 12.5 -14.5t7.5 -23.5q-25 -42 -112.5 -115t-149.5 -73q-31 0 -49.5 29t-18.5 68t14 113l108 554 h-134q-4 0 -4 11.5z" />
<glyph unicode="u" horiz-adv-x="982" d="M40 682q26 44 108.5 116t143.5 72q32 0 55 -30t23 -68t-14 -112l-70 -330q-14 -63 -14 -106.5t7.5 -65.5t32.5 -22t77.5 44t108 112t104.5 163t61 156.5t26 131t23 115.5q27 8 67.5 8t72.5 -8l-124 -646q-8 -40 -8 -77t20 -37q35 0 140 116q5 0 12.5 -14.5t7.5 -23.5 q-25 -42 -112.5 -115t-149.5 -73q-31 0 -49.5 29t-18.5 68t9.5 91t15.5 79q10 45 25 117q-28 -61 -96 -148.5t-156.5 -161.5t-149.5 -74q-100 0 -100 144q0 71 28 206l66 308q8 48 8 81t-20 33q-35 0 -140 -116q-5 0 -12.5 14.5t-7.5 23.5z" />
<glyph unicode="v" horiz-adv-x="878" d="M34 682q26 44 108.5 116t143.5 72q32 0 55 -31.5t23 -76.5v-410q0 -166 8 -222q101 87 153.5 155t90.5 142q62 123 62 239q0 74 -52 126q11 30 36 54t69 24t71.5 -43.5t27.5 -124.5t-74.5 -210t-173.5 -238t-200 -187.5t-152 -78.5q-16 18 -16 308v414q0 50 -20 50 q-35 0 -140 -116q-5 0 -12.5 14.5t-7.5 23.5z" />
<glyph unicode="w" horiz-adv-x="1258" d="M34 682q26 44 108.5 116t143.5 72q32 0 55 -31.5t23 -76.5v-410q0 -116 8 -172q101 108 226 330q33 61 86 184q12 15 39.5 33.5t46.5 22.5q7 -271 13.5 -417t28.5 -181q80 70 130 140.5t81 156t31 217.5q0 74 -52 126q11 30 36 54t69 24t71.5 -43.5t27.5 -125t-63.5 -210 t-148.5 -238t-175.5 -187.5t-140.5 -78q-9 11 -23.5 133.5t-16.5 178.5l-4 128q-307 -440 -404 -440q-16 18 -16 308v414q0 50 -20 50q-35 0 -140 -116q-5 0 -12.5 14.5t-7.5 23.5z" />
<glyph unicode="x" horiz-adv-x="964" d="M30 81q0 38 20 63.5t47 25.5t53 -28q26 -29 50 -29q30 0 56 45q71 119 138 251l-56 275q-16 76 -64 76q-27 0 -78.5 -41.5t-73.5 -70.5q-4 0 -12 15t-8 23q21 37 104 110.5t135 73.5t89.5 -46t53.5 -126l28 -136q8 16 30 61t36.5 73.5t39 69t42.5 58.5q46 46 99 46 t91 -24q22 -29 22 -67t-20 -63.5t-47 -25.5t-53 28q-26 29 -50 29q-30 0 -56 -45q-73 -125 -119 -214l63 -310q16 -74 70 -74q23 0 74 41.5t72 68.5q4 0 12 -15t8 -23q-21 -37 -104 -110.5t-135 -73.5t-89.5 46.5t-53.5 125.5l-35 172q-15 -30 -39.5 -79.5t-37.5 -75 t-33 -62.5t-35 -55.5t-34 -37.5q-36 -36 -88 -36t-90 24q-22 29 -22 67z" />
<glyph unicode="y" horiz-adv-x="894" d="M-222 -388q0 67 46 92q22 -13 74.5 -25.5t85.5 -12.5q158 0 272 166q36 53 36 220v18v99.5t-5.5 152t-17.5 204t-37 169.5t-60 65t-140 -116q-5 0 -12.5 14.5t-7.5 23.5q26 44 108.5 116t143.5 72q63 0 100 -115q40 -122 51 -230.5t16 -174.5t7 -138q4 -101 4 -182 q69 83 124 188q106 199 106 352q0 106 -26 165q-8 18 -24 49q12 40 38.5 63t61.5 23q88 0 88 -158q0 -113 -49 -249.5t-127.5 -264.5t-178.5 -250t-200.5 -213t-195.5 -146t-154.5 -55t-93 24t-33.5 54z" />
<glyph unicode="z" horiz-adv-x="774" d="M-20 38q0 23 452 504q151 162 152 164q-63 -42 -115 -42t-128.5 34t-112.5 34q-50 0 -118 -136q-20 0 -24 32q16 47 57 113q82 129 147 129q51 0 98.5 -18.5t82.5 -31t82 -12.5t114.5 31t68.5 31q22 -11 22 -40q0 -19 -196 -233q-365 -400 -378 -413q44 22 94 22t122 -34 q68 -34 106 -34q49 0 116 134q20 0 24 -32q-110 -240 -210 -240q-46 0 -160 44q-53 20 -110.5 20t-80 -11t-46.5 -29t-37 -24q-18 6 -22 38z" />
<glyph unicode="{" horiz-adv-x="444" d="M52 576q0 15 4 22q152 39 152 168q0 11 -1 21.5t-4.5 23t-5.5 20t-8 23t-8 19.5t-10 22.5t-9 20.5q-46 100 -46 166q0 132 68.5 229.5t145.5 128.5q12 0 22 -12t10 -26q-51 -25 -104.5 -90t-53.5 -134q0 -16 1 -30.5t4.5 -29.5t6 -25t9 -26.5t9 -22.5t10.5 -24.5 t10 -23.5q46 -96 46 -186q0 -87 -48 -151t-98 -83q50 -19 98 -83t48 -151q0 -90 -46 -186q-2 -5 -10 -23.5t-10.5 -24.5t-9 -22.5t-9 -26.5t-6 -25t-4.5 -29.5t-1 -30.5q0 -69 53.5 -134t104.5 -90q0 -14 -10 -26t-22 -12q-77 31 -145.5 128.5t-68.5 229.5q0 66 46 166 q1 2 9 20.5t10 22.5t8 19.5t8 23t5.5 20t4.5 23t1 21.5q0 129 -152 168q-4 7 -4 22z" />
<glyph unicode="|" horiz-adv-x="410" d="M154.5 -235.5q0.5 4.5 0.5 5.5v1744q-2 12 10 16q48 14 74 14q8 0 12 -3t4 -6v-3l2 -1744q0 -10 -41.5 -22t-50.5 -12q-5 0 -7.5 1.5t-3 3t0 6z" />
<glyph unicode="}" horiz-adv-x="446" d="M82 -250q51 25 104.5 90t53.5 134q0 16 -1 30.5t-4.5 29.5t-6 25t-9 26.5t-9 22.5t-10.5 24.5t-10 23.5q-46 96 -46 186q0 87 48 151t98 83q-50 19 -98 83t-48 151q0 90 46 186q2 5 10 23.5t10.5 24.5t9 22.5t9 26.5t6 25t4.5 29.5t1 30.5q0 69 -53.5 134t-104.5 90 q0 14 10 26t22 12q77 -31 145.5 -128.5t68.5 -229.5q0 -66 -46 -166q-1 -2 -9 -20.5t-10 -22.5t-8 -19.5t-8 -23t-5.5 -20t-4.5 -23t-1 -21.5q0 -129 152 -168q4 -7 4 -22t-4 -22q-152 -39 -152 -168q0 -11 1 -21.5t4.5 -23t5.5 -20t8 -23t8 -19.5t10 -22.5t9 -20.5 q46 -100 46 -166q0 -132 -68.5 -229.5t-145.5 -128.5q-12 0 -22 12t-10 26z" />
<glyph unicode="~" d="M118 538q0 37 46 77.5t111 66.5t121.5 26t112 -16.5t93.5 -36.5q101 -53 208 -53q60 0 123 42q18 12 63 46q12 -12 12 -20q0 -50 -85.5 -110t-164.5 -60t-135.5 16.5t-95.5 36.5q-103 53 -211 53q-60 0 -123 -42q-18 -12 -63 -46q-12 12 -12 20z" />
<glyph unicode="&#xa2;" horiz-adv-x="716" d="M36 267.5q0 127.5 49.5 239t124 189.5t163 126t159.5 48t130 -50q18 -24 18 -57.5t-17.5 -60t-44.5 -26.5q-56 0 -78 40q-14 22 -24 34q-30 38 -75.5 38t-89 -35.5t-79.5 -95.5q-80 -136 -80 -333q0 -218 138 -218q77 0 206 138q5 0 14.5 -15.5t9.5 -24.5 q-25 -43 -89 -101q-125 -115 -222 -115t-155 76t-58 203.5zM156 -72l352 1020q64 0 62 -16l-352 -1022q-28 0 -45.5 6t-16.5 12z" />
<glyph unicode="&#xa3;" horiz-adv-x="894" d="M-4 20q24 34 63 79.5t53 64.5q49 103 90 310q5 25 10 86h-112q-12 32 34 78h83q0 1 1 2q7 128 20 194q37 188 163 312t277 124q97 0 128 -74q0 -42 -22 -80t-51.5 -38t-47.5 17t-27 37q-24 54 -69.5 54t-80.5 -24.5t-58 -69.5q-40 -77 -57 -165t-29 -237q-2 -28 -4 -52 h262q10 -10 -6.5 -41t-27.5 -37h-235q-5 -43 -9 -64q-36 -186 -170 -320q24 9 42.5 9.5t28.5 1t36 0t61.5 -0.5t132.5 -32t127.5 -32t58.5 18.5t42 35t38 52.5t27 40q6 0 12 -10t6 -22t-4 -20q-125 -232 -264 -232q-64 0 -181 37t-170 37t-143 -76q-16 0 -23 13t-5 25z" />
<glyph unicode="&#xa5;" horiz-adv-x="1184" d="M173.5 1236q7.5 23 13.5 28l220 -10q50 0 230 10q2 -11 -2.5 -33.5t-11.5 -22.5q-32 0 -72 -14t-46 -46q-4 -16 10 -58l152 -458q87 122 197 287.5t127.5 195.5t19 40.5t-6.5 20.5q-24 30 -113 30q-4 5 -0.5 27.5t8.5 28.5q160 -10 190.5 -10t61.5 1.5t67 4.5t59 4 q0 -7 -6 -31.5t-10 -24.5q-114 0 -170 -76l-392 -556q-13 -18 -15 -36.5t-3 -21.5l-60 -294q-22 -109 -18 -142q1 -14 44 -22t72 -8q5 -7 2 -28t-12 -28q-180 10 -206.5 10t-211.5 -10q-6 8 -1 28t13 28q29 0 75.5 8t55 25t33.5 139l56 288q5 32 -2 54l-160 482 q-18 52 -37.5 80.5t-45.5 47.5q-47 34 -101 34q-11 5 -3.5 28zM309 290q0 14 8 34t18 28h492q6 0 6 -26t-24 -50h-492q-8 0 -8 14zM339 446q0 14 8 34t18 28h492q6 0 6 -26t-24 -50h-492q-8 0 -8 14z" />
<glyph unicode="&#xa8;" horiz-adv-x="570" d="M34 1092q7 37 39 64.5t67 27.5t55 -28.5t13 -65.5t-38 -63.5t-66 -26.5t-56 27.5t-14 64.5zM374 1092q7 37 40 64.5t67.5 27.5t54.5 -28t12.5 -65.5t-38.5 -64t-66 -26.5t-56 27.5t-14 64.5z" />
<glyph unicode="&#xa9;" horiz-adv-x="1318" d="M112 684q0 226 160 386t386 160q149 0 275 -73t199.5 -199t73.5 -274t-73.5 -274t-199.5 -199t-275 -73q-226 0 -386 160t-160 386zM178 684q0 -131 64.5 -242.5t175.5 -176.5t242 -65t242.5 65t176.5 176.5t65 242.5t-65 242.5t-176.5 176.5t-242.5 65t-242 -65 t-175.5 -176.5t-64.5 -242.5zM374 672q0 122 80 208t202 86q125 0 224 -38q32 -114 32 -122q0 -7 -10.5 -12.5t-21.5 -5.5q-6 0 -14 4q-3 13 -12.5 28t-29 34t-57 31.5t-87.5 12.5q-80 0 -136 -62t-56 -146q0 -112 65.5 -174t144.5 -62q103 0 144 38q10 10 17 26.5t9.5 28 t3.5 11.5q37 0 40 -6q0 -9 -15.5 -64.5t-24.5 -59.5q-94 -38 -212 -38q-121 0 -203.5 81.5t-82.5 200.5z" />
<glyph unicode="&#xab;" horiz-adv-x="964" d="M54 492q0 14 10 36q252 152 418 318q35 -11 44 -24q-8 -30 -114 -145.5t-182 -182.5q76 -67 182 -182.5t114 -145.5q-9 -13 -44 -24q-166 166 -418 318q-10 15 -10 32zM414 492q0 14 10 36q252 152 418 318q35 -11 44 -24q-8 -30 -114 -145.5t-182 -182.5 q76 -67 182 -182.5t114 -145.5q-9 -13 -44 -24q-166 166 -418 318q-10 15 -10 32z" />
<glyph unicode="&#xad;" horiz-adv-x="742" d="M106 423.5q0 25.5 13.5 61.5t28.5 37l454 24q12 0 12 -23t-16 -62.5t-30 -40.5l-452 -22q-10 0 -10 25.5z" />
<glyph unicode="&#xae;" horiz-adv-x="1318" d="M112 814q0 226 160 386t386 160q149 0 275 -73t199.5 -199t73.5 -274q0 -149 -73.5 -275t-199.5 -199.5t-275 -73.5q-148 0 -274 73.5t-199 199.5t-73 275zM178 814q0 -131 64.5 -242.5t175.5 -176.5t242 -65t242.5 65t176.5 176.5t65 242.5t-65 242t-176.5 175.5 t-242.5 64.5t-242 -64.5t-175.5 -175.5t-64.5 -242zM408.5 559.5q0.5 11.5 2.5 14.5q13 0 34.5 3.5t23.5 9.5q5 17 5 63v353q0 45 -5 63q-2 6 -23.5 9.5t-34.5 3.5q-2 3 -2.5 14.5t2.5 14.5q70 -4 114 -4q14 0 54 0.5t67 0.5q66 0 123.5 -39.5t57.5 -106.5q0 -44 -33 -83.5 t-78 -55.5q60 -98 144 -199q20 -24 40.5 -34.5t54.5 -12.5q3 -4 2 -15.5t-2 -13.5q-108 0 -136 10q-35 12 -55 38q-73 95 -141 202q-6 10 -25 10h-31v-155q0 -49 4 -63q2 -6 24 -9.5t35 -3.5q2 -3 2.5 -14.5t-2.5 -14.5q-70 4 -107 4q-42 0 -112 -4q-3 3 -2.5 14.5zM567 841 q23 1 38 0q56 0 91 25.5t35 72.5q0 63 -25.5 98t-91.5 35q-40 0 -43 -9q-2 -4 -4 -63v-159z" />
<glyph unicode="&#xb4;" horiz-adv-x="402" d="M20 1003.5q0 8.5 84.5 106t109.5 115t60.5 17.5t61.5 -14.5t26 -45.5q0 -26 -149.5 -114t-176.5 -88q-4 0 -10 7.5t-6 16z" />
<glyph unicode="&#xb8;" horiz-adv-x="322" d="M17 -258q1 10 11 19t19.5 9t28.5 -13t45.5 -13t52.5 19.5t32 49.5t-9 47.5t-34 17.5t-54 -14q-4 0 -11 10.5t0.5 20t37 46t39.5 51.5h38l-42 -46h46q35 0 53.5 -29t10.5 -69q-13 -69 -71.5 -110.5t-114 -41.5t-78.5 18v28z" />
<glyph unicode="&#xbb;" horiz-adv-x="964" d="M82 166q8 30 114 145.5t182 182.5q-76 67 -182 182.5t-114 145.5q9 13 44 24q166 -166 418 -318q10 -22 10 -36q0 -17 -10 -32q-252 -152 -418 -318q-35 11 -44 24zM442 166q8 30 114 145.5t182 182.5q-76 67 -182 182.5t-114 145.5q9 13 44 24q166 -166 418 -318 q10 -22 10 -36q0 -17 -10 -32q-252 -152 -418 -318q-35 11 -44 24z" />
<glyph unicode="&#x2000;" horiz-adv-x="772" />
<glyph unicode="&#x2001;" horiz-adv-x="1544" />
<glyph unicode="&#x2002;" horiz-adv-x="772" />
<glyph unicode="&#x2003;" horiz-adv-x="1544" />
<glyph unicode="&#x2004;" horiz-adv-x="514" />
<glyph unicode="&#x2005;" horiz-adv-x="386" />
<glyph unicode="&#x2006;" horiz-adv-x="257" />
<glyph unicode="&#x2007;" horiz-adv-x="257" />
<glyph unicode="&#x2008;" horiz-adv-x="193" />
<glyph unicode="&#x2009;" horiz-adv-x="308" />
<glyph unicode="&#x200a;" horiz-adv-x="85" />
<glyph unicode="&#x2010;" horiz-adv-x="742" d="M106 423.5q0 25.5 13.5 61.5t28.5 37l454 24q12 0 12 -23t-16 -62.5t-30 -40.5l-452 -22q-10 0 -10 25.5z" />
<glyph unicode="&#x2011;" horiz-adv-x="742" d="M106 423.5q0 25.5 13.5 61.5t28.5 37l454 24q12 0 12 -23t-16 -62.5t-30 -40.5l-452 -22q-10 0 -10 25.5z" />
<glyph unicode="&#x2012;" horiz-adv-x="742" d="M106 423.5q0 25.5 13.5 61.5t28.5 37l454 24q12 0 12 -23t-16 -62.5t-30 -40.5l-452 -22q-10 0 -10 25.5z" />
<glyph unicode="&#x2013;" horiz-adv-x="1128" d="M106 424.5q0 24.5 13.5 57t30.5 42.5h832q12 0 12 -24.5t-13.5 -57t-30.5 -42.5h-832q-12 0 -12 24.5z" />
<glyph unicode="&#x2014;" horiz-adv-x="1600" d="M106 424.5q0 24.5 13.5 57t30.5 42.5h1304q12 0 12 -24.5t-13.5 -57t-30.5 -42.5h-1304q-12 0 -12 24.5z" />
<glyph unicode="&#x2018;" horiz-adv-x="366" d="M88 1110q0 53 21 103t51 85t62.5 61.5t55.5 39.5t30 13q25 0 38 -36q-54 -32 -88.5 -75t-43 -67.5t-8.5 -39.5q0 -11 5.5 -22.5t10 -18t18 -21.5t16.5 -18q32 -36 32 -64q0 -35 -40.5 -60.5t-89.5 -25.5q-19 0 -40 6q-13 19 -21.5 60t-8.5 80z" />
<glyph unicode="&#x2019;" horiz-adv-x="384" d="M70 1004q42 25 72.5 55.5t44 56.5t19.5 43.5t6 26.5q0 8 -2.5 16t-8.5 17t-10 14t-14 16t-13 15q-34 38 -34 66q0 35 40.5 60.5t89.5 25.5q19 0 40 -6q28 -40 28 -140q0 -53 -21 -103t-50.5 -85t-62 -61.5t-55 -39.5t-29.5 -13q-27 0 -40 36z" />
<glyph unicode="&#x201a;" horiz-adv-x="396" d="M32 -160q42 25 72.5 55.5t44 56.5t19.5 43.5t6 26.5q0 8 -2.5 16t-8.5 17t-10 14t-14 16t-13 15q-34 38 -34 66q0 35 40.5 60.5t89.5 25.5q19 0 40 -6q28 -40 28 -140q0 -53 -21 -103t-50.5 -84.5t-62 -61t-55 -39t-29.5 -12.5q-28 0 -40 34z" />
<glyph unicode="&#x201c;" horiz-adv-x="654" d="M88 1110q0 53 21 103t51 85t62.5 61.5t55.5 39.5t30 13q25 0 38 -36q-54 -32 -88.5 -75t-43 -67.5t-8.5 -39.5q0 -10 3 -19t11.5 -20.5t12 -15.5t17.5 -19q38 -42 38 -70q0 -35 -40.5 -60.5t-89.5 -25.5q-19 0 -40 6q-13 19 -21.5 60t-8.5 80zM376 1110q0 53 21 103 t50.5 85t62 61.5t55 39.5t29.5 13q27 0 40 -36q-42 -25 -72.5 -55.5t-44 -56.5t-19.5 -43.5t-6 -26.5q0 -30 36 -66q37 -41 44 -61q2 -9 2 -17q0 -35 -39.5 -60.5t-88.5 -25.5q-21 0 -42 6q-28 40 -28 140z" />
<glyph unicode="&#x201d;" horiz-adv-x="672" d="M70 1004q42 25 72.5 55.5t44 56.5t19.5 43.5t6 26.5q0 30 -36 66q-37 41 -44 61q-2 9 -2 17q0 35 40.5 60.5t89.5 25.5q19 0 40 -6q28 -40 28 -140q0 -53 -21 -103t-50.5 -85t-62 -61.5t-55 -39.5t-29.5 -13q-27 0 -40 36zM358 1004q54 32 88.5 75t43 67.5t8.5 39.5 q0 8 -2.5 16t-8.5 17t-10 14t-14 16t-13 15q-34 38 -34 66q0 35 40.5 60.5t89.5 25.5q19 0 40 -6q13 -19 21.5 -60t8.5 -80q0 -53 -21 -103t-51 -85t-62.5 -61.5t-55.5 -39.5t-30 -13q-25 0 -38 36z" />
<glyph unicode="&#x201e;" horiz-adv-x="684" d="M32 -160q42 25 72.5 55.5t44 56.5t19.5 43.5t6 26.5t-3 18t-9.5 18.5t-11.5 16t-15.5 17.5t-14.5 16q-28 32 -28 58q0 35 40.5 60.5t89.5 25.5q19 0 40 -6q28 -40 28 -140q0 -53 -21 -103t-50.5 -84.5t-62 -61t-55 -39t-29.5 -12.5q-28 0 -40 34zM320 -164q54 32 88.5 75 t43 67.5t8.5 39.5q0 8 -2.5 16t-8.5 17t-10 14t-14 16t-13 15q-34 38 -34 66q0 35 40.5 60.5t89.5 25.5q19 0 40 -6q13 -19 21.5 -60t8.5 -80q0 -53 -21 -103t-51 -84.5t-62.5 -61t-55.5 -39t-30 -12.5q-26 0 -38 34z" />
<glyph unicode="&#x2022;" horiz-adv-x="668" d="M131.5 525.5q16.5 88.5 88 152.5t154 64t129 -63.5t30 -152t-88 -152.5t-154 -64t-129 63.5t-30 152z" />
<glyph unicode="&#x2026;" horiz-adv-x="1360" d="M18 71.5q0 47.5 39 90t83.5 42.5t69 -25.5t24.5 -72.5t-41 -90.5t-85 -43.5t-67 26t-23 73.5zM492 71.5q0 47.5 39 90t83.5 42.5t69 -25.5t24.5 -72.5t-41 -90.5t-85 -43.5t-67 26t-23 73.5zM962 72q0 48 40 90t84.5 42t69 -25.5t24.5 -72.5t-42 -90.5t-86 -43.5t-67 26 t-23 74z" />
<glyph unicode="&#x202f;" horiz-adv-x="308" />
<glyph unicode="&#x2039;" horiz-adv-x="618" d="M60 482q0 36 16 54q117 70 224 152t137.5 110t50.5 48q46 -12 46 -38q0 -12 -17.5 -31t-104.5 -101q-26 -25 -94.5 -97t-81.5 -85l174 -180q20 -20 39.5 -39t31 -29.5t22 -20.5t15 -15t8.5 -10.5t5 -9t1 -8.5q0 -8 -6 -15t-12.5 -10t-16 -6.5t-11.5 -4.5q-2 5 -39 37.5 t-139.5 109t-233.5 161.5q-14 6 -14 28z" />
<glyph unicode="&#x203a;" horiz-adv-x="616" d="M86 808q0 8 6 15t12 10.5t16 7.5t12 5q20 -20 51 -48.5t137 -110t222 -151.5q18 -21 18 -54q0 -22 -16 -28q-115 -75 -212 -146.5t-139.5 -107.5t-58.5 -54q-21 5 -32 13t-12.5 12.5t-1.5 10.5q0 5 1 9t5.5 9.5l9 11t15 15.5t21.5 20.5t30 29t38 37.5l174 180 q-13 13 -81.5 85t-94.5 97q-89 86 -104.5 103t-15.5 29z" />
<glyph unicode="&#x205f;" horiz-adv-x="386" />
<glyph unicode="&#x20ac;" horiz-adv-x="1236" d="M56 498q0 14 8 35t18 29h676q6 0 6 -27t-24 -51h-676q-8 0 -8 14zM86 694q0 14 8 35t18 29h676q6 0 6 -27t-24 -51h-676q-8 0 -8 14zM161 503.5q0 138.5 42.5 263t115 215t165.5 156.5q188 132 410 128q113 -2 293 -50q-7 -127 -18 -277q-1 -15 -26.5 -15t-34.5 15 q7 111 -73 185.5t-184.5 74.5t-195.5 -46.5t-160.5 -129.5t-111 -210t-41.5 -246t23.5 -202.5t67 -154.5t116.5 -114.5t164 -43.5q126 0 235 97q81 72 132 179q19 0 49 -15q-6 -31 -57 -138t-70 -123q-70 -38 -146.5 -53t-200 -15t-240 70.5t-185.5 190.5t-69 258.5z" />
<glyph unicode="&#x25fc;" horiz-adv-x="870" d="M0 0v870h870v-870h-870z" />
</font>
</defs>
</svg>
